%TF.GenerationSoftware,KiCad,Pcbnew,6.0.11-2627ca5db0~126~ubuntu20.04.1*%
%TF.CreationDate,2023-08-10T13:48:02+05:00*%
%TF.ProjectId,zx_01,7a785f30-312e-46b6-9963-61645f706362,rev?*%
%TF.SameCoordinates,Original*%
%TF.FileFunction,Drillmap*%
%TF.FilePolarity,Positive*%
%FSLAX45Y45*%
G04 Gerber Fmt 4.5, Leading zero omitted, Abs format (unit mm)*
G04 Created by KiCad (PCBNEW 6.0.11-2627ca5db0~126~ubuntu20.04.1) date 2023-08-10 13:48:02*
%MOMM*%
%LPD*%
G01*
G04 APERTURE LIST*
%ADD10C,0.100000*%
%ADD11C,0.200000*%
G04 APERTURE END LIST*
D10*
X4318000Y-5080000D02*
G75*
G03*
X4254500Y-5143500I0J-63500D01*
G01*
X13017500Y-14033500D02*
G75*
G03*
X12954000Y-14097000I0J-63500D01*
G01*
X4318000Y-5080000D02*
X14097000Y-5080000D01*
X5207000Y-14922500D02*
G75*
G03*
X5270500Y-14986000I63500J0D01*
G01*
X13017500Y-14033500D02*
X14097000Y-14033500D01*
X5207000Y-14097000D02*
G75*
G03*
X5143500Y-14033500I-63500J0D01*
G01*
X4254500Y-13970000D02*
X4254500Y-5143500D01*
X12954000Y-14224000D02*
G75*
G03*
X13017500Y-14287500I63500J0D01*
G01*
X14160500Y-5143500D02*
G75*
G03*
X14097000Y-5080000I-63500J0D01*
G01*
X5207000Y-14922500D02*
X5207000Y-14097000D01*
X14160500Y-13970000D02*
X14160500Y-5143500D01*
X13144500Y-14986000D02*
G75*
G03*
X13208000Y-14922500I0J63500D01*
G01*
X13144500Y-14986000D02*
X5270500Y-14986000D01*
X14097000Y-14033500D02*
G75*
G03*
X14160500Y-13970000I0J63500D01*
G01*
X5143500Y-14033500D02*
X4318000Y-14033500D01*
X12954000Y-14097000D02*
X12954000Y-14224000D01*
X4254500Y-13970000D02*
G75*
G03*
X4318000Y-14033500I63500J0D01*
G01*
X13208000Y-14922500D02*
X13208000Y-14287500D01*
X13208000Y-14287500D02*
X13017500Y-14287500D01*
D11*
X4507119Y-15301476D02*
X4507119Y-15101476D01*
X4554738Y-15101476D01*
X4583310Y-15111000D01*
X4602357Y-15130048D01*
X4611881Y-15149095D01*
X4621405Y-15187190D01*
X4621405Y-15215762D01*
X4611881Y-15253857D01*
X4602357Y-15272905D01*
X4583310Y-15291952D01*
X4554738Y-15301476D01*
X4507119Y-15301476D01*
X4707119Y-15301476D02*
X4707119Y-15168143D01*
X4707119Y-15206238D02*
X4716643Y-15187190D01*
X4726167Y-15177667D01*
X4745214Y-15168143D01*
X4764262Y-15168143D01*
X4830929Y-15301476D02*
X4830929Y-15168143D01*
X4830929Y-15101476D02*
X4821405Y-15111000D01*
X4830929Y-15120524D01*
X4840452Y-15111000D01*
X4830929Y-15101476D01*
X4830929Y-15120524D01*
X4954738Y-15301476D02*
X4935690Y-15291952D01*
X4926167Y-15272905D01*
X4926167Y-15101476D01*
X5059500Y-15301476D02*
X5040452Y-15291952D01*
X5030929Y-15272905D01*
X5030929Y-15101476D01*
X5288071Y-15301476D02*
X5288071Y-15101476D01*
X5354738Y-15244333D01*
X5421405Y-15101476D01*
X5421405Y-15301476D01*
X5602357Y-15301476D02*
X5602357Y-15196714D01*
X5592833Y-15177667D01*
X5573786Y-15168143D01*
X5535690Y-15168143D01*
X5516643Y-15177667D01*
X5602357Y-15291952D02*
X5583310Y-15301476D01*
X5535690Y-15301476D01*
X5516643Y-15291952D01*
X5507119Y-15272905D01*
X5507119Y-15253857D01*
X5516643Y-15234809D01*
X5535690Y-15225286D01*
X5583310Y-15225286D01*
X5602357Y-15215762D01*
X5697595Y-15168143D02*
X5697595Y-15368143D01*
X5697595Y-15177667D02*
X5716643Y-15168143D01*
X5754738Y-15168143D01*
X5773786Y-15177667D01*
X5783309Y-15187190D01*
X5792833Y-15206238D01*
X5792833Y-15263381D01*
X5783309Y-15282428D01*
X5773786Y-15291952D01*
X5754738Y-15301476D01*
X5716643Y-15301476D01*
X5697595Y-15291952D01*
X5878548Y-15282428D02*
X5888071Y-15291952D01*
X5878548Y-15301476D01*
X5869024Y-15291952D01*
X5878548Y-15282428D01*
X5878548Y-15301476D01*
X5878548Y-15177667D02*
X5888071Y-15187190D01*
X5878548Y-15196714D01*
X5869024Y-15187190D01*
X5878548Y-15177667D01*
X5878548Y-15196714D01*
M02*
