M48
; DRILL file {KiCad 6.0.11-2627ca5db0~126~ubuntu20.04.1} date Чт 10 авг 2023 13:48:02
; FORMAT={-:-/ absolute / metric / decimal}
; #@! TF.CreationDate,2023-08-10T13:48:02+05:00
; #@! TF.GenerationSoftware,Kicad,Pcbnew,6.0.11-2627ca5db0~126~ubuntu20.04.1
; #@! TF.FileFunction,Plated,1,2,PTH
FMAT,2
METRIC
; #@! TA.AperFunction,Plated,PTH,ComponentDrill
T1C0.900
; #@! TA.AperFunction,Plated,PTH,ComponentDrill
T2C1.000
; #@! TA.AperFunction,Plated,PTH,ComponentDrill
T3C3.000
%
G90
G05
T1
X53.975Y-133.35
X53.975Y-135.89
X56.515Y-133.35
X56.515Y-135.89
X59.055Y-133.35
X59.055Y-135.89
X61.595Y-133.35
X61.595Y-135.89
X64.135Y-133.35
X64.135Y-135.89
X66.675Y-133.35
X66.675Y-135.89
X69.215Y-133.35
X69.215Y-135.89
X71.755Y-133.35
X71.755Y-135.89
X74.295Y-133.35
X74.295Y-135.89
X76.835Y-133.35
X76.835Y-135.89
X79.375Y-133.35
X79.375Y-135.89
X81.915Y-133.35
X81.915Y-135.89
X84.455Y-133.35
X84.455Y-135.89
X86.995Y-133.35
X86.995Y-135.89
X89.535Y-133.35
X89.535Y-135.89
X92.075Y-133.35
X92.075Y-135.89
X94.615Y-133.35
X94.615Y-135.89
X97.155Y-133.35
X97.155Y-135.89
X99.695Y-133.35
X99.695Y-135.89
X102.235Y-133.35
X102.235Y-135.89
X104.775Y-133.35
X104.775Y-135.89
X107.315Y-133.35
X107.315Y-135.89
X109.855Y-133.35
X109.855Y-135.89
X112.395Y-133.35
X112.395Y-135.89
X114.935Y-133.35
X114.935Y-135.89
X117.475Y-133.35
X117.475Y-135.89
X120.015Y-133.35
X120.015Y-135.89
X122.555Y-133.35
X122.555Y-135.89
X125.095Y-133.35
X125.095Y-135.89
X127.635Y-133.35
X127.635Y-135.89
T2
X46.355Y-60.325
X46.355Y-62.865
X46.355Y-65.405
X46.355Y-67.945
X46.355Y-70.485
X46.355Y-73.025
X46.355Y-75.565
X46.355Y-78.105
X46.355Y-80.645
X46.355Y-83.185
X46.355Y-85.725
X46.355Y-88.265
X46.355Y-90.805
X46.355Y-93.345
X46.355Y-95.885
X46.355Y-98.425
X46.355Y-100.965
X46.355Y-103.505
X46.355Y-106.045
X46.355Y-108.585
X46.355Y-111.125
X46.355Y-113.665
X46.355Y-116.205
X46.355Y-118.745
X46.355Y-121.285
X46.355Y-123.825
X46.355Y-126.365
X48.895Y-57.785
X48.895Y-60.325
X48.895Y-62.865
X48.895Y-65.405
X48.895Y-67.945
X48.895Y-70.485
X48.895Y-73.025
X48.895Y-75.565
X48.895Y-78.105
X48.895Y-80.645
X48.895Y-83.185
X48.895Y-85.725
X48.895Y-88.265
X48.895Y-90.805
X48.895Y-93.345
X48.895Y-95.885
X48.895Y-98.425
X48.895Y-100.965
X48.895Y-103.505
X48.895Y-106.045
X48.895Y-108.585
X48.895Y-111.125
X48.895Y-113.665
X48.895Y-116.205
X48.895Y-118.745
X48.895Y-121.285
X48.895Y-123.825
X48.895Y-126.365
X51.435Y-52.705
X51.435Y-55.245
X51.435Y-57.785
X51.435Y-60.325
X51.435Y-62.865
X51.435Y-65.405
X51.435Y-67.945
X51.435Y-70.485
X51.435Y-73.025
X51.435Y-75.565
X51.435Y-78.105
X51.435Y-80.645
X51.435Y-83.185
X51.435Y-85.725
X51.435Y-88.265
X51.435Y-90.805
X51.435Y-93.345
X51.435Y-95.885
X51.435Y-98.425
X51.435Y-100.965
X51.435Y-103.505
X51.435Y-106.045
X51.435Y-108.585
X51.435Y-111.125
X51.435Y-113.665
X51.435Y-116.205
X51.435Y-118.745
X51.435Y-121.285
X51.435Y-123.825
X51.435Y-126.365
X53.975Y-52.705
X53.975Y-55.245
X53.975Y-57.785
X53.975Y-60.325
X53.975Y-62.865
X53.975Y-65.405
X53.975Y-67.945
X53.975Y-70.485
X53.975Y-73.025
X53.975Y-75.565
X53.975Y-78.105
X53.975Y-80.645
X53.975Y-83.185
X53.975Y-85.725
X53.975Y-88.265
X53.975Y-90.805
X53.975Y-93.345
X53.975Y-95.885
X53.975Y-98.425
X53.975Y-100.965
X53.975Y-103.505
X53.975Y-106.045
X53.975Y-108.585
X53.975Y-111.125
X53.975Y-113.665
X53.975Y-116.205
X53.975Y-118.745
X53.975Y-121.285
X53.975Y-123.825
X53.975Y-126.365
X56.515Y-52.705
X56.515Y-55.245
X56.515Y-57.785
X56.515Y-60.325
X56.515Y-62.865
X56.515Y-65.405
X56.515Y-67.945
X56.515Y-70.485
X56.515Y-73.025
X56.515Y-75.565
X56.515Y-78.105
X56.515Y-80.645
X56.515Y-83.185
X56.515Y-85.725
X56.515Y-88.265
X56.515Y-90.805
X56.515Y-93.345
X56.515Y-95.885
X56.515Y-98.425
X56.515Y-100.965
X56.515Y-103.505
X56.515Y-106.045
X56.515Y-108.585
X56.515Y-111.125
X56.515Y-113.665
X56.515Y-116.205
X56.515Y-118.745
X56.515Y-121.285
X56.515Y-123.825
X56.515Y-126.365
X59.055Y-52.705
X59.055Y-55.245
X59.055Y-57.785
X59.055Y-60.325
X59.055Y-62.865
X59.055Y-65.405
X59.055Y-67.945
X59.055Y-70.485
X59.055Y-73.025
X59.055Y-75.565
X59.055Y-78.105
X59.055Y-80.645
X59.055Y-83.185
X59.055Y-85.725
X59.055Y-88.265
X59.055Y-90.805
X59.055Y-93.345
X59.055Y-95.885
X59.055Y-98.425
X59.055Y-100.965
X59.055Y-103.505
X59.055Y-106.045
X59.055Y-108.585
X59.055Y-111.125
X59.055Y-113.665
X59.055Y-116.205
X59.055Y-118.745
X59.055Y-121.285
X59.055Y-123.825
X59.055Y-126.365
X61.595Y-52.705
X61.595Y-55.245
X61.595Y-57.785
X61.595Y-60.325
X61.595Y-62.865
X61.595Y-65.405
X61.595Y-67.945
X61.595Y-70.485
X61.595Y-73.025
X61.595Y-75.565
X61.595Y-78.105
X61.595Y-80.645
X61.595Y-83.185
X61.595Y-85.725
X61.595Y-88.265
X61.595Y-90.805
X61.595Y-93.345
X61.595Y-95.885
X61.595Y-98.425
X61.595Y-100.965
X61.595Y-103.505
X61.595Y-106.045
X61.595Y-108.585
X61.595Y-111.125
X61.595Y-113.665
X61.595Y-116.205
X61.595Y-118.745
X61.595Y-121.285
X61.595Y-123.825
X61.595Y-126.365
X64.135Y-52.705
X64.135Y-55.245
X64.135Y-57.785
X64.135Y-60.325
X64.135Y-62.865
X64.135Y-65.405
X64.135Y-67.945
X64.135Y-70.485
X64.135Y-73.025
X64.135Y-75.565
X64.135Y-78.105
X64.135Y-80.645
X64.135Y-83.185
X64.135Y-85.725
X64.135Y-88.265
X64.135Y-90.805
X64.135Y-93.345
X64.135Y-95.885
X64.135Y-98.425
X64.135Y-100.965
X64.135Y-103.505
X64.135Y-106.045
X64.135Y-108.585
X64.135Y-111.125
X64.135Y-113.665
X64.135Y-116.205
X64.135Y-118.745
X64.135Y-121.285
X64.135Y-123.825
X64.135Y-126.365
X66.675Y-52.705
X66.675Y-55.245
X66.675Y-57.785
X66.675Y-60.325
X66.675Y-62.865
X66.675Y-65.405
X66.675Y-67.945
X66.675Y-70.485
X66.675Y-73.025
X66.675Y-75.565
X66.675Y-78.105
X66.675Y-80.645
X66.675Y-83.185
X66.675Y-85.725
X66.675Y-88.265
X66.675Y-90.805
X66.675Y-93.345
X66.675Y-95.885
X66.675Y-98.425
X66.675Y-100.965
X66.675Y-103.505
X66.675Y-106.045
X66.675Y-108.585
X66.675Y-111.125
X66.675Y-113.665
X66.675Y-116.205
X66.675Y-118.745
X66.675Y-121.285
X66.675Y-123.825
X66.675Y-126.365
X69.215Y-52.705
X69.215Y-55.245
X69.215Y-57.785
X69.215Y-60.325
X69.215Y-62.865
X69.215Y-65.405
X69.215Y-67.945
X69.215Y-70.485
X69.215Y-73.025
X69.215Y-75.565
X69.215Y-78.105
X69.215Y-80.645
X69.215Y-83.185
X69.215Y-85.725
X69.215Y-88.265
X69.215Y-90.805
X69.215Y-93.345
X69.215Y-95.885
X69.215Y-98.425
X69.215Y-100.965
X69.215Y-103.505
X69.215Y-106.045
X69.215Y-108.585
X69.215Y-111.125
X69.215Y-113.665
X69.215Y-116.205
X69.215Y-118.745
X69.215Y-121.285
X69.215Y-123.825
X69.215Y-126.365
X71.755Y-52.705
X71.755Y-55.245
X71.755Y-57.785
X71.755Y-60.325
X71.755Y-62.865
X71.755Y-65.405
X71.755Y-67.945
X71.755Y-70.485
X71.755Y-73.025
X71.755Y-75.565
X71.755Y-78.105
X71.755Y-80.645
X71.755Y-83.185
X71.755Y-85.725
X71.755Y-88.265
X71.755Y-90.805
X71.755Y-93.345
X71.755Y-95.885
X71.755Y-98.425
X71.755Y-100.965
X71.755Y-103.505
X71.755Y-106.045
X71.755Y-108.585
X71.755Y-111.125
X71.755Y-113.665
X71.755Y-116.205
X71.755Y-118.745
X71.755Y-121.285
X71.755Y-123.825
X71.755Y-126.365
X74.295Y-52.705
X74.295Y-55.245
X74.295Y-57.785
X74.295Y-60.325
X74.295Y-62.865
X74.295Y-65.405
X74.295Y-67.945
X74.295Y-70.485
X74.295Y-73.025
X74.295Y-75.565
X74.295Y-78.105
X74.295Y-80.645
X74.295Y-83.185
X74.295Y-85.725
X74.295Y-88.265
X74.295Y-90.805
X74.295Y-93.345
X74.295Y-95.885
X74.295Y-98.425
X74.295Y-100.965
X74.295Y-103.505
X74.295Y-106.045
X74.295Y-108.585
X74.295Y-111.125
X74.295Y-113.665
X74.295Y-116.205
X74.295Y-118.745
X74.295Y-121.285
X74.295Y-123.825
X74.295Y-126.365
X76.835Y-52.705
X76.835Y-55.245
X76.835Y-57.785
X76.835Y-60.325
X76.835Y-62.865
X76.835Y-65.405
X76.835Y-67.945
X76.835Y-70.485
X76.835Y-73.025
X76.835Y-75.565
X76.835Y-78.105
X76.835Y-80.645
X76.835Y-83.185
X76.835Y-85.725
X76.835Y-88.265
X76.835Y-90.805
X76.835Y-93.345
X76.835Y-95.885
X76.835Y-98.425
X76.835Y-100.965
X76.835Y-103.505
X76.835Y-106.045
X76.835Y-108.585
X76.835Y-111.125
X76.835Y-113.665
X76.835Y-116.205
X76.835Y-118.745
X76.835Y-121.285
X76.835Y-123.825
X76.835Y-126.365
X79.375Y-52.705
X79.375Y-55.245
X79.375Y-57.785
X79.375Y-60.325
X79.375Y-62.865
X79.375Y-65.405
X79.375Y-67.945
X79.375Y-70.485
X79.375Y-73.025
X79.375Y-75.565
X79.375Y-78.105
X79.375Y-80.645
X79.375Y-83.185
X79.375Y-85.725
X79.375Y-88.265
X79.375Y-90.805
X79.375Y-93.345
X79.375Y-95.885
X79.375Y-98.425
X79.375Y-100.965
X79.375Y-103.505
X79.375Y-106.045
X79.375Y-108.585
X79.375Y-111.125
X79.375Y-113.665
X79.375Y-116.205
X79.375Y-118.745
X79.375Y-121.285
X79.375Y-123.825
X79.375Y-126.365
X81.915Y-52.705
X81.915Y-55.245
X81.915Y-57.785
X81.915Y-60.325
X81.915Y-62.865
X81.915Y-65.405
X81.915Y-67.945
X81.915Y-70.485
X81.915Y-73.025
X81.915Y-75.565
X81.915Y-78.105
X81.915Y-80.645
X81.915Y-83.185
X81.915Y-85.725
X81.915Y-88.265
X81.915Y-90.805
X81.915Y-93.345
X81.915Y-95.885
X81.915Y-98.425
X81.915Y-100.965
X81.915Y-103.505
X81.915Y-106.045
X81.915Y-108.585
X81.915Y-111.125
X81.915Y-113.665
X81.915Y-116.205
X81.915Y-118.745
X81.915Y-121.285
X81.915Y-123.825
X81.915Y-126.365
X84.455Y-52.705
X84.455Y-55.245
X84.455Y-57.785
X84.455Y-60.325
X84.455Y-62.865
X84.455Y-65.405
X84.455Y-67.945
X84.455Y-70.485
X84.455Y-73.025
X84.455Y-75.565
X84.455Y-78.105
X84.455Y-80.645
X84.455Y-83.185
X84.455Y-85.725
X84.455Y-88.265
X84.455Y-90.805
X84.455Y-93.345
X84.455Y-95.885
X84.455Y-98.425
X84.455Y-100.965
X84.455Y-103.505
X84.455Y-106.045
X84.455Y-108.585
X84.455Y-111.125
X84.455Y-113.665
X84.455Y-116.205
X84.455Y-118.745
X84.455Y-121.285
X84.455Y-123.825
X84.455Y-126.365
X86.995Y-52.705
X86.995Y-55.245
X86.995Y-57.785
X86.995Y-60.325
X86.995Y-62.865
X86.995Y-65.405
X86.995Y-67.945
X86.995Y-70.485
X86.995Y-73.025
X86.995Y-75.565
X86.995Y-78.105
X86.995Y-80.645
X86.995Y-83.185
X86.995Y-85.725
X86.995Y-88.265
X86.995Y-90.805
X86.995Y-93.345
X86.995Y-95.885
X86.995Y-98.425
X86.995Y-100.965
X86.995Y-103.505
X86.995Y-106.045
X86.995Y-108.585
X86.995Y-111.125
X86.995Y-113.665
X86.995Y-116.205
X86.995Y-118.745
X86.995Y-121.285
X86.995Y-123.825
X86.995Y-126.365
X89.535Y-52.705
X89.535Y-55.245
X89.535Y-57.785
X89.535Y-60.325
X89.535Y-62.865
X89.535Y-65.405
X89.535Y-67.945
X89.535Y-70.485
X89.535Y-73.025
X89.535Y-75.565
X89.535Y-78.105
X89.535Y-80.645
X89.535Y-83.185
X89.535Y-85.725
X89.535Y-88.265
X89.535Y-90.805
X89.535Y-93.345
X89.535Y-95.885
X89.535Y-98.425
X89.535Y-100.965
X89.535Y-103.505
X89.535Y-106.045
X89.535Y-108.585
X89.535Y-111.125
X89.535Y-113.665
X89.535Y-116.205
X89.535Y-118.745
X89.535Y-121.285
X89.535Y-123.825
X89.535Y-126.365
X92.075Y-52.705
X92.075Y-55.245
X92.075Y-57.785
X92.075Y-60.325
X92.075Y-62.865
X92.075Y-65.405
X92.075Y-67.945
X92.075Y-70.485
X92.075Y-73.025
X92.075Y-75.565
X92.075Y-78.105
X92.075Y-80.645
X92.075Y-83.185
X92.075Y-85.725
X92.075Y-88.265
X92.075Y-90.805
X92.075Y-93.345
X92.075Y-95.885
X92.075Y-98.425
X92.075Y-100.965
X92.075Y-103.505
X92.075Y-106.045
X92.075Y-108.585
X92.075Y-111.125
X92.075Y-113.665
X92.075Y-116.205
X92.075Y-118.745
X92.075Y-121.285
X92.075Y-123.825
X92.075Y-126.365
X94.615Y-52.705
X94.615Y-55.245
X94.615Y-57.785
X94.615Y-60.325
X94.615Y-62.865
X94.615Y-65.405
X94.615Y-67.945
X94.615Y-70.485
X94.615Y-73.025
X94.615Y-75.565
X94.615Y-78.105
X94.615Y-80.645
X94.615Y-83.185
X94.615Y-85.725
X94.615Y-88.265
X94.615Y-90.805
X94.615Y-93.345
X94.615Y-95.885
X94.615Y-98.425
X94.615Y-100.965
X94.615Y-103.505
X94.615Y-106.045
X94.615Y-108.585
X94.615Y-111.125
X94.615Y-113.665
X94.615Y-116.205
X94.615Y-118.745
X94.615Y-121.285
X94.615Y-123.825
X94.615Y-126.365
X97.155Y-52.705
X97.155Y-55.245
X97.155Y-57.785
X97.155Y-60.325
X97.155Y-62.865
X97.155Y-65.405
X97.155Y-67.945
X97.155Y-70.485
X97.155Y-73.025
X97.155Y-75.565
X97.155Y-78.105
X97.155Y-80.645
X97.155Y-83.185
X97.155Y-85.725
X97.155Y-88.265
X97.155Y-90.805
X97.155Y-93.345
X97.155Y-95.885
X97.155Y-98.425
X97.155Y-100.965
X97.155Y-103.505
X97.155Y-106.045
X97.155Y-108.585
X97.155Y-111.125
X97.155Y-113.665
X97.155Y-116.205
X97.155Y-118.745
X97.155Y-121.285
X97.155Y-123.825
X97.155Y-126.365
X99.695Y-52.705
X99.695Y-55.245
X99.695Y-57.785
X99.695Y-60.325
X99.695Y-62.865
X99.695Y-65.405
X99.695Y-67.945
X99.695Y-70.485
X99.695Y-73.025
X99.695Y-75.565
X99.695Y-78.105
X99.695Y-80.645
X99.695Y-83.185
X99.695Y-85.725
X99.695Y-88.265
X99.695Y-90.805
X99.695Y-93.345
X99.695Y-95.885
X99.695Y-98.425
X99.695Y-100.965
X99.695Y-103.505
X99.695Y-106.045
X99.695Y-108.585
X99.695Y-111.125
X99.695Y-113.665
X99.695Y-116.205
X99.695Y-118.745
X99.695Y-121.285
X99.695Y-123.825
X99.695Y-126.365
X102.235Y-52.705
X102.235Y-55.245
X102.235Y-57.785
X102.235Y-60.325
X102.235Y-62.865
X102.235Y-65.405
X102.235Y-67.945
X102.235Y-70.485
X102.235Y-73.025
X102.235Y-75.565
X102.235Y-78.105
X102.235Y-80.645
X102.235Y-83.185
X102.235Y-85.725
X102.235Y-88.265
X102.235Y-90.805
X102.235Y-93.345
X102.235Y-95.885
X102.235Y-98.425
X102.235Y-100.965
X102.235Y-103.505
X102.235Y-106.045
X102.235Y-108.585
X102.235Y-111.125
X102.235Y-113.665
X102.235Y-116.205
X102.235Y-118.745
X102.235Y-121.285
X102.235Y-123.825
X102.235Y-126.365
X104.775Y-52.705
X104.775Y-55.245
X104.775Y-57.785
X104.775Y-60.325
X104.775Y-62.865
X104.775Y-65.405
X104.775Y-67.945
X104.775Y-70.485
X104.775Y-73.025
X104.775Y-75.565
X104.775Y-78.105
X104.775Y-80.645
X104.775Y-83.185
X104.775Y-85.725
X104.775Y-88.265
X104.775Y-90.805
X104.775Y-93.345
X104.775Y-95.885
X104.775Y-98.425
X104.775Y-100.965
X104.775Y-103.505
X104.775Y-106.045
X104.775Y-108.585
X104.775Y-111.125
X104.775Y-113.665
X104.775Y-116.205
X104.775Y-118.745
X104.775Y-121.285
X104.775Y-123.825
X104.775Y-126.365
X107.315Y-52.705
X107.315Y-55.245
X107.315Y-57.785
X107.315Y-60.325
X107.315Y-62.865
X107.315Y-65.405
X107.315Y-67.945
X107.315Y-70.485
X107.315Y-73.025
X107.315Y-75.565
X107.315Y-78.105
X107.315Y-80.645
X107.315Y-83.185
X107.315Y-85.725
X107.315Y-88.265
X107.315Y-90.805
X107.315Y-93.345
X107.315Y-95.885
X107.315Y-98.425
X107.315Y-100.965
X107.315Y-103.505
X107.315Y-106.045
X107.315Y-108.585
X107.315Y-111.125
X107.315Y-113.665
X107.315Y-116.205
X107.315Y-118.745
X107.315Y-121.285
X107.315Y-123.825
X107.315Y-126.365
X109.855Y-52.705
X109.855Y-55.245
X109.855Y-57.785
X109.855Y-60.325
X109.855Y-62.865
X109.855Y-65.405
X109.855Y-67.945
X109.855Y-70.485
X109.855Y-73.025
X109.855Y-75.565
X109.855Y-78.105
X109.855Y-80.645
X109.855Y-83.185
X109.855Y-85.725
X109.855Y-88.265
X109.855Y-90.805
X109.855Y-93.345
X109.855Y-95.885
X109.855Y-98.425
X109.855Y-100.965
X109.855Y-103.505
X109.855Y-106.045
X109.855Y-108.585
X109.855Y-111.125
X109.855Y-113.665
X109.855Y-116.205
X109.855Y-118.745
X109.855Y-121.285
X109.855Y-123.825
X109.855Y-126.365
X112.395Y-52.705
X112.395Y-55.245
X112.395Y-57.785
X112.395Y-60.325
X112.395Y-62.865
X112.395Y-65.405
X112.395Y-67.945
X112.395Y-70.485
X112.395Y-73.025
X112.395Y-75.565
X112.395Y-78.105
X112.395Y-80.645
X112.395Y-83.185
X112.395Y-85.725
X112.395Y-88.265
X112.395Y-90.805
X112.395Y-93.345
X112.395Y-95.885
X112.395Y-98.425
X112.395Y-100.965
X112.395Y-103.505
X112.395Y-106.045
X112.395Y-108.585
X112.395Y-111.125
X112.395Y-113.665
X112.395Y-116.205
X112.395Y-118.745
X112.395Y-121.285
X112.395Y-123.825
X112.395Y-126.365
X114.935Y-52.705
X114.935Y-55.245
X114.935Y-57.785
X114.935Y-60.325
X114.935Y-62.865
X114.935Y-65.405
X114.935Y-67.945
X114.935Y-70.485
X114.935Y-73.025
X114.935Y-75.565
X114.935Y-78.105
X114.935Y-80.645
X114.935Y-83.185
X114.935Y-85.725
X114.935Y-88.265
X114.935Y-90.805
X114.935Y-93.345
X114.935Y-95.885
X114.935Y-98.425
X114.935Y-100.965
X114.935Y-103.505
X114.935Y-106.045
X114.935Y-108.585
X114.935Y-111.125
X114.935Y-113.665
X114.935Y-116.205
X114.935Y-118.745
X114.935Y-121.285
X114.935Y-123.825
X114.935Y-126.365
X117.475Y-52.705
X117.475Y-55.245
X117.475Y-57.785
X117.475Y-60.325
X117.475Y-62.865
X117.475Y-65.405
X117.475Y-67.945
X117.475Y-70.485
X117.475Y-73.025
X117.475Y-75.565
X117.475Y-78.105
X117.475Y-80.645
X117.475Y-83.185
X117.475Y-85.725
X117.475Y-88.265
X117.475Y-90.805
X117.475Y-93.345
X117.475Y-95.885
X117.475Y-98.425
X117.475Y-100.965
X117.475Y-103.505
X117.475Y-106.045
X117.475Y-108.585
X117.475Y-111.125
X117.475Y-113.665
X117.475Y-116.205
X117.475Y-118.745
X117.475Y-121.285
X117.475Y-123.825
X117.475Y-126.365
X120.015Y-52.705
X120.015Y-55.245
X120.015Y-57.785
X120.015Y-60.325
X120.015Y-62.865
X120.015Y-65.405
X120.015Y-67.945
X120.015Y-70.485
X120.015Y-73.025
X120.015Y-75.565
X120.015Y-78.105
X120.015Y-80.645
X120.015Y-83.185
X120.015Y-85.725
X120.015Y-88.265
X120.015Y-90.805
X120.015Y-93.345
X120.015Y-95.885
X120.015Y-98.425
X120.015Y-100.965
X120.015Y-103.505
X120.015Y-106.045
X120.015Y-108.585
X120.015Y-111.125
X120.015Y-113.665
X120.015Y-116.205
X120.015Y-118.745
X120.015Y-121.285
X120.015Y-123.825
X120.015Y-126.365
X122.555Y-52.705
X122.555Y-55.245
X122.555Y-57.785
X122.555Y-60.325
X122.555Y-62.865
X122.555Y-65.405
X122.555Y-67.945
X122.555Y-70.485
X122.555Y-73.025
X122.555Y-75.565
X122.555Y-78.105
X122.555Y-80.645
X122.555Y-83.185
X122.555Y-85.725
X122.555Y-88.265
X122.555Y-90.805
X122.555Y-93.345
X122.555Y-95.885
X122.555Y-98.425
X122.555Y-100.965
X122.555Y-103.505
X122.555Y-106.045
X122.555Y-108.585
X122.555Y-111.125
X122.555Y-113.665
X122.555Y-116.205
X122.555Y-118.745
X122.555Y-121.285
X122.555Y-123.825
X122.555Y-126.365
X125.095Y-52.705
X125.095Y-55.245
X125.095Y-57.785
X125.095Y-60.325
X125.095Y-62.865
X125.095Y-65.405
X125.095Y-67.945
X125.095Y-70.485
X125.095Y-73.025
X125.095Y-75.565
X125.095Y-78.105
X125.095Y-80.645
X125.095Y-83.185
X125.095Y-85.725
X125.095Y-88.265
X125.095Y-90.805
X125.095Y-93.345
X125.095Y-95.885
X125.095Y-98.425
X125.095Y-100.965
X125.095Y-103.505
X125.095Y-106.045
X125.095Y-108.585
X125.095Y-111.125
X125.095Y-113.665
X125.095Y-116.205
X125.095Y-118.745
X125.095Y-121.285
X125.095Y-123.825
X125.095Y-126.365
X127.635Y-52.705
X127.635Y-55.245
X127.635Y-57.785
X127.635Y-60.325
X127.635Y-62.865
X127.635Y-65.405
X127.635Y-67.945
X127.635Y-70.485
X127.635Y-73.025
X127.635Y-75.565
X127.635Y-78.105
X127.635Y-80.645
X127.635Y-83.185
X127.635Y-85.725
X127.635Y-88.265
X127.635Y-90.805
X127.635Y-93.345
X127.635Y-95.885
X127.635Y-98.425
X127.635Y-100.965
X127.635Y-103.505
X127.635Y-106.045
X127.635Y-108.585
X127.635Y-111.125
X127.635Y-113.665
X127.635Y-116.205
X127.635Y-118.745
X127.635Y-121.285
X127.635Y-123.825
X127.635Y-126.365
X130.175Y-52.705
X130.175Y-55.245
X130.175Y-57.785
X130.175Y-60.325
X130.175Y-62.865
X130.175Y-65.405
X130.175Y-67.945
X130.175Y-70.485
X130.175Y-73.025
X130.175Y-75.565
X130.175Y-78.105
X130.175Y-80.645
X130.175Y-83.185
X130.175Y-85.725
X130.175Y-88.265
X130.175Y-90.805
X130.175Y-93.345
X130.175Y-95.885
X130.175Y-98.425
X130.175Y-100.965
X130.175Y-103.505
X130.175Y-106.045
X130.175Y-108.585
X130.175Y-111.125
X130.175Y-113.665
X130.175Y-116.205
X130.175Y-118.745
X130.175Y-121.285
X130.175Y-123.825
X130.175Y-126.365
X132.715Y-52.705
X132.715Y-55.245
X132.715Y-57.785
X132.715Y-60.325
X132.715Y-62.865
X132.715Y-65.405
X132.715Y-67.945
X132.715Y-70.485
X132.715Y-73.025
X132.715Y-75.565
X132.715Y-78.105
X132.715Y-80.645
X132.715Y-83.185
X132.715Y-85.725
X132.715Y-88.265
X132.715Y-90.805
X132.715Y-93.345
X132.715Y-95.885
X132.715Y-98.425
X132.715Y-100.965
X132.715Y-103.505
X132.715Y-106.045
X132.715Y-108.585
X132.715Y-111.125
X132.715Y-113.665
X132.715Y-116.205
X132.715Y-118.745
X132.715Y-121.285
X132.715Y-123.825
X132.715Y-126.365
X135.255Y-57.785
X135.255Y-60.325
X135.255Y-62.865
X135.255Y-65.405
X135.255Y-67.945
X135.255Y-70.485
X135.255Y-73.025
X135.255Y-75.565
X135.255Y-78.105
X135.255Y-80.645
X135.255Y-83.185
X135.255Y-85.725
X135.255Y-88.265
X135.255Y-90.805
X135.255Y-93.345
X135.255Y-95.885
X135.255Y-98.425
X135.255Y-100.965
X135.255Y-103.505
X135.255Y-106.045
X135.255Y-108.585
X135.255Y-111.125
X135.255Y-113.665
X135.255Y-116.205
X135.255Y-118.745
X135.255Y-121.285
X135.255Y-123.825
X135.255Y-126.365
X137.795Y-60.325
X137.795Y-62.865
X137.795Y-65.405
X137.795Y-67.945
X137.795Y-70.485
X137.795Y-73.025
X137.795Y-75.565
X137.795Y-78.105
X137.795Y-80.645
X137.795Y-83.185
X137.795Y-85.725
X137.795Y-88.265
X137.795Y-90.805
X137.795Y-93.345
X137.795Y-95.885
X137.795Y-98.425
X137.795Y-100.965
X137.795Y-103.505
X137.795Y-106.045
X137.795Y-108.585
X137.795Y-111.125
X137.795Y-113.665
X137.795Y-116.205
X137.795Y-118.745
X137.795Y-121.285
X137.795Y-123.825
X137.795Y-126.365
T3
X46.355Y-54.61
X46.355Y-136.525
X137.795Y-54.61
X137.795Y-136.525
T0
M30
