G04 #@! TF.GenerationSoftware,KiCad,Pcbnew,6.0.11-2627ca5db0~126~ubuntu20.04.1*
G04 #@! TF.CreationDate,2023-08-10T13:47:57+05:00*
G04 #@! TF.ProjectId,zx_01,7a785f30-312e-46b6-9963-61645f706362,rev?*
G04 #@! TF.SameCoordinates,Original*
G04 #@! TF.FileFunction,Copper,L1,Top*
G04 #@! TF.FilePolarity,Positive*
%FSLAX46Y46*%
G04 Gerber Fmt 4.6, Leading zero omitted, Abs format (unit mm)*
G04 Created by KiCad (PCBNEW 6.0.11-2627ca5db0~126~ubuntu20.04.1) date 2023-08-10 13:47:57*
%MOMM*%
%LPD*%
G01*
G04 APERTURE LIST*
G04 Aperture macros list*
%AMRoundRect*
0 Rectangle with rounded corners*
0 $1 Rounding radius*
0 $2 $3 $4 $5 $6 $7 $8 $9 X,Y pos of 4 corners*
0 Add a 4 corners polygon primitive as box body*
4,1,4,$2,$3,$4,$5,$6,$7,$8,$9,$2,$3,0*
0 Add four circle primitives for the rounded corners*
1,1,$1+$1,$2,$3*
1,1,$1+$1,$4,$5*
1,1,$1+$1,$6,$7*
1,1,$1+$1,$8,$9*
0 Add four rect primitives between the rounded corners*
20,1,$1+$1,$2,$3,$4,$5,0*
20,1,$1+$1,$4,$5,$6,$7,0*
20,1,$1+$1,$6,$7,$8,$9,0*
20,1,$1+$1,$8,$9,$2,$3,0*%
G04 Aperture macros list end*
G04 #@! TA.AperFunction,ComponentPad*
%ADD10C,2.100000*%
G04 #@! TD*
G04 #@! TA.AperFunction,ComponentPad*
%ADD11C,5.000000*%
G04 #@! TD*
G04 #@! TA.AperFunction,ComponentPad*
%ADD12O,1.800000X2.250000*%
G04 #@! TD*
G04 #@! TA.AperFunction,SMDPad,CuDef*
%ADD13RoundRect,0.425000X0.425000X-3.575000X0.425000X3.575000X-0.425000X3.575000X-0.425000X-3.575000X0*%
G04 #@! TD*
G04 #@! TA.AperFunction,Conductor*
%ADD14C,0.700000*%
G04 #@! TD*
G04 APERTURE END LIST*
D10*
X46355000Y-67945000D03*
X48895000Y-67945000D03*
X51435000Y-67945000D03*
X53975000Y-67945000D03*
X56515000Y-67945000D03*
X59055000Y-67945000D03*
X61595000Y-67945000D03*
X64135000Y-67945000D03*
X66675000Y-67945000D03*
X69215000Y-67945000D03*
X71755000Y-67945000D03*
X74295000Y-67945000D03*
X76835000Y-67945000D03*
X79375000Y-67945000D03*
X81915000Y-67945000D03*
X84455000Y-67945000D03*
X86995000Y-67945000D03*
X89535000Y-67945000D03*
X92075000Y-67945000D03*
X94615000Y-67945000D03*
X97155000Y-67945000D03*
X99695000Y-67945000D03*
X102235000Y-67945000D03*
X104775000Y-67945000D03*
X107315000Y-67945000D03*
X109855000Y-67945000D03*
X112395000Y-67945000D03*
X114935000Y-67945000D03*
X117475000Y-67945000D03*
X120015000Y-67945000D03*
X122555000Y-67945000D03*
X125095000Y-67945000D03*
X127635000Y-67945000D03*
X130175000Y-67945000D03*
X132715000Y-67945000D03*
X135255000Y-67945000D03*
X137795000Y-67945000D03*
X46355000Y-103505000D03*
X48895000Y-103505000D03*
X51435000Y-103505000D03*
X53975000Y-103505000D03*
X56515000Y-103505000D03*
X59055000Y-103505000D03*
X61595000Y-103505000D03*
X64135000Y-103505000D03*
X66675000Y-103505000D03*
X69215000Y-103505000D03*
X71755000Y-103505000D03*
X74295000Y-103505000D03*
X76835000Y-103505000D03*
X79375000Y-103505000D03*
X81915000Y-103505000D03*
X84455000Y-103505000D03*
X86995000Y-103505000D03*
X89535000Y-103505000D03*
X92075000Y-103505000D03*
X94615000Y-103505000D03*
X97155000Y-103505000D03*
X99695000Y-103505000D03*
X102235000Y-103505000D03*
X104775000Y-103505000D03*
X107315000Y-103505000D03*
X109855000Y-103505000D03*
X112395000Y-103505000D03*
X114935000Y-103505000D03*
X117475000Y-103505000D03*
X120015000Y-103505000D03*
X122555000Y-103505000D03*
X125095000Y-103505000D03*
X127635000Y-103505000D03*
X130175000Y-103505000D03*
X132715000Y-103505000D03*
X135255000Y-103505000D03*
X137795000Y-103505000D03*
X51435000Y-55245000D03*
X53975000Y-55245000D03*
X56515000Y-55245000D03*
X59055000Y-55245000D03*
X61595000Y-55245000D03*
X64135000Y-55245000D03*
X66675000Y-55245000D03*
X69215000Y-55245000D03*
X71755000Y-55245000D03*
X74295000Y-55245000D03*
X76835000Y-55245000D03*
X79375000Y-55245000D03*
X81915000Y-55245000D03*
X84455000Y-55245000D03*
X86995000Y-55245000D03*
X89535000Y-55245000D03*
X92075000Y-55245000D03*
X94615000Y-55245000D03*
X97155000Y-55245000D03*
X99695000Y-55245000D03*
X102235000Y-55245000D03*
X104775000Y-55245000D03*
X107315000Y-55245000D03*
X109855000Y-55245000D03*
X112395000Y-55245000D03*
X114935000Y-55245000D03*
X117475000Y-55245000D03*
X120015000Y-55245000D03*
X122555000Y-55245000D03*
X125095000Y-55245000D03*
X127635000Y-55245000D03*
X130175000Y-55245000D03*
X132715000Y-55245000D03*
X46355000Y-78105000D03*
X48895000Y-78105000D03*
X51435000Y-78105000D03*
X53975000Y-78105000D03*
X56515000Y-78105000D03*
X59055000Y-78105000D03*
X61595000Y-78105000D03*
X64135000Y-78105000D03*
X66675000Y-78105000D03*
X69215000Y-78105000D03*
X71755000Y-78105000D03*
X74295000Y-78105000D03*
X76835000Y-78105000D03*
X79375000Y-78105000D03*
X81915000Y-78105000D03*
X84455000Y-78105000D03*
X86995000Y-78105000D03*
X89535000Y-78105000D03*
X92075000Y-78105000D03*
X94615000Y-78105000D03*
X97155000Y-78105000D03*
X99695000Y-78105000D03*
X102235000Y-78105000D03*
X104775000Y-78105000D03*
X107315000Y-78105000D03*
X109855000Y-78105000D03*
X112395000Y-78105000D03*
X114935000Y-78105000D03*
X117475000Y-78105000D03*
X120015000Y-78105000D03*
X122555000Y-78105000D03*
X125095000Y-78105000D03*
X127635000Y-78105000D03*
X130175000Y-78105000D03*
X132715000Y-78105000D03*
X135255000Y-78105000D03*
X137795000Y-78105000D03*
X46355000Y-100965000D03*
X48895000Y-100965000D03*
X51435000Y-100965000D03*
X53975000Y-100965000D03*
X56515000Y-100965000D03*
X59055000Y-100965000D03*
X61595000Y-100965000D03*
X64135000Y-100965000D03*
X66675000Y-100965000D03*
X69215000Y-100965000D03*
X71755000Y-100965000D03*
X74295000Y-100965000D03*
X76835000Y-100965000D03*
X79375000Y-100965000D03*
X81915000Y-100965000D03*
X84455000Y-100965000D03*
X86995000Y-100965000D03*
X89535000Y-100965000D03*
X92075000Y-100965000D03*
X94615000Y-100965000D03*
X97155000Y-100965000D03*
X99695000Y-100965000D03*
X102235000Y-100965000D03*
X104775000Y-100965000D03*
X107315000Y-100965000D03*
X109855000Y-100965000D03*
X112395000Y-100965000D03*
X114935000Y-100965000D03*
X117475000Y-100965000D03*
X120015000Y-100965000D03*
X122555000Y-100965000D03*
X125095000Y-100965000D03*
X127635000Y-100965000D03*
X130175000Y-100965000D03*
X132715000Y-100965000D03*
X135255000Y-100965000D03*
X137795000Y-100965000D03*
X46355000Y-116205000D03*
X48895000Y-116205000D03*
X51435000Y-116205000D03*
X53975000Y-116205000D03*
X56515000Y-116205000D03*
X59055000Y-116205000D03*
X61595000Y-116205000D03*
X64135000Y-116205000D03*
X66675000Y-116205000D03*
X69215000Y-116205000D03*
X71755000Y-116205000D03*
X74295000Y-116205000D03*
X76835000Y-116205000D03*
X79375000Y-116205000D03*
X81915000Y-116205000D03*
X84455000Y-116205000D03*
X86995000Y-116205000D03*
X89535000Y-116205000D03*
X92075000Y-116205000D03*
X94615000Y-116205000D03*
X97155000Y-116205000D03*
X99695000Y-116205000D03*
X102235000Y-116205000D03*
X104775000Y-116205000D03*
X107315000Y-116205000D03*
X109855000Y-116205000D03*
X112395000Y-116205000D03*
X114935000Y-116205000D03*
X117475000Y-116205000D03*
X120015000Y-116205000D03*
X122555000Y-116205000D03*
X125095000Y-116205000D03*
X127635000Y-116205000D03*
X130175000Y-116205000D03*
X132715000Y-116205000D03*
X135255000Y-116205000D03*
X137795000Y-116205000D03*
X46355000Y-93345000D03*
X48895000Y-93345000D03*
X51435000Y-93345000D03*
X53975000Y-93345000D03*
X56515000Y-93345000D03*
X59055000Y-93345000D03*
X61595000Y-93345000D03*
X64135000Y-93345000D03*
X66675000Y-93345000D03*
X69215000Y-93345000D03*
X71755000Y-93345000D03*
X74295000Y-93345000D03*
X76835000Y-93345000D03*
X79375000Y-93345000D03*
X81915000Y-93345000D03*
X84455000Y-93345000D03*
X86995000Y-93345000D03*
X89535000Y-93345000D03*
X92075000Y-93345000D03*
X94615000Y-93345000D03*
X97155000Y-93345000D03*
X99695000Y-93345000D03*
X102235000Y-93345000D03*
X104775000Y-93345000D03*
X107315000Y-93345000D03*
X109855000Y-93345000D03*
X112395000Y-93345000D03*
X114935000Y-93345000D03*
X117475000Y-93345000D03*
X120015000Y-93345000D03*
X122555000Y-93345000D03*
X125095000Y-93345000D03*
X127635000Y-93345000D03*
X130175000Y-93345000D03*
X132715000Y-93345000D03*
X135255000Y-93345000D03*
X137795000Y-93345000D03*
X46355000Y-121285000D03*
X48895000Y-121285000D03*
X51435000Y-121285000D03*
X53975000Y-121285000D03*
X56515000Y-121285000D03*
X59055000Y-121285000D03*
X61595000Y-121285000D03*
X64135000Y-121285000D03*
X66675000Y-121285000D03*
X69215000Y-121285000D03*
X71755000Y-121285000D03*
X74295000Y-121285000D03*
X76835000Y-121285000D03*
X79375000Y-121285000D03*
X81915000Y-121285000D03*
X84455000Y-121285000D03*
X86995000Y-121285000D03*
X89535000Y-121285000D03*
X92075000Y-121285000D03*
X94615000Y-121285000D03*
X97155000Y-121285000D03*
X99695000Y-121285000D03*
X102235000Y-121285000D03*
X104775000Y-121285000D03*
X107315000Y-121285000D03*
X109855000Y-121285000D03*
X112395000Y-121285000D03*
X114935000Y-121285000D03*
X117475000Y-121285000D03*
X120015000Y-121285000D03*
X122555000Y-121285000D03*
X125095000Y-121285000D03*
X127635000Y-121285000D03*
X130175000Y-121285000D03*
X132715000Y-121285000D03*
X135255000Y-121285000D03*
X137795000Y-121285000D03*
X46355000Y-106045000D03*
X48895000Y-106045000D03*
X51435000Y-106045000D03*
X53975000Y-106045000D03*
X56515000Y-106045000D03*
X59055000Y-106045000D03*
X61595000Y-106045000D03*
X64135000Y-106045000D03*
X66675000Y-106045000D03*
X69215000Y-106045000D03*
X71755000Y-106045000D03*
X74295000Y-106045000D03*
X76835000Y-106045000D03*
X79375000Y-106045000D03*
X81915000Y-106045000D03*
X84455000Y-106045000D03*
X86995000Y-106045000D03*
X89535000Y-106045000D03*
X92075000Y-106045000D03*
X94615000Y-106045000D03*
X97155000Y-106045000D03*
X99695000Y-106045000D03*
X102235000Y-106045000D03*
X104775000Y-106045000D03*
X107315000Y-106045000D03*
X109855000Y-106045000D03*
X112395000Y-106045000D03*
X114935000Y-106045000D03*
X117475000Y-106045000D03*
X120015000Y-106045000D03*
X122555000Y-106045000D03*
X125095000Y-106045000D03*
X127635000Y-106045000D03*
X130175000Y-106045000D03*
X132715000Y-106045000D03*
X135255000Y-106045000D03*
X137795000Y-106045000D03*
X46355000Y-113665000D03*
X48895000Y-113665000D03*
X51435000Y-113665000D03*
X53975000Y-113665000D03*
X56515000Y-113665000D03*
X59055000Y-113665000D03*
X61595000Y-113665000D03*
X64135000Y-113665000D03*
X66675000Y-113665000D03*
X69215000Y-113665000D03*
X71755000Y-113665000D03*
X74295000Y-113665000D03*
X76835000Y-113665000D03*
X79375000Y-113665000D03*
X81915000Y-113665000D03*
X84455000Y-113665000D03*
X86995000Y-113665000D03*
X89535000Y-113665000D03*
X92075000Y-113665000D03*
X94615000Y-113665000D03*
X97155000Y-113665000D03*
X99695000Y-113665000D03*
X102235000Y-113665000D03*
X104775000Y-113665000D03*
X107315000Y-113665000D03*
X109855000Y-113665000D03*
X112395000Y-113665000D03*
X114935000Y-113665000D03*
X117475000Y-113665000D03*
X120015000Y-113665000D03*
X122555000Y-113665000D03*
X125095000Y-113665000D03*
X127635000Y-113665000D03*
X130175000Y-113665000D03*
X132715000Y-113665000D03*
X135255000Y-113665000D03*
X137795000Y-113665000D03*
X46355000Y-123825000D03*
X48895000Y-123825000D03*
X51435000Y-123825000D03*
X53975000Y-123825000D03*
X56515000Y-123825000D03*
X59055000Y-123825000D03*
X61595000Y-123825000D03*
X64135000Y-123825000D03*
X66675000Y-123825000D03*
X69215000Y-123825000D03*
X71755000Y-123825000D03*
X74295000Y-123825000D03*
X76835000Y-123825000D03*
X79375000Y-123825000D03*
X81915000Y-123825000D03*
X84455000Y-123825000D03*
X86995000Y-123825000D03*
X89535000Y-123825000D03*
X92075000Y-123825000D03*
X94615000Y-123825000D03*
X97155000Y-123825000D03*
X99695000Y-123825000D03*
X102235000Y-123825000D03*
X104775000Y-123825000D03*
X107315000Y-123825000D03*
X109855000Y-123825000D03*
X112395000Y-123825000D03*
X114935000Y-123825000D03*
X117475000Y-123825000D03*
X120015000Y-123825000D03*
X122555000Y-123825000D03*
X125095000Y-123825000D03*
X127635000Y-123825000D03*
X130175000Y-123825000D03*
X132715000Y-123825000D03*
X135255000Y-123825000D03*
X137795000Y-123825000D03*
D11*
X46355000Y-54610000D03*
D10*
X46355000Y-111125000D03*
X48895000Y-111125000D03*
X51435000Y-111125000D03*
X53975000Y-111125000D03*
X56515000Y-111125000D03*
X59055000Y-111125000D03*
X61595000Y-111125000D03*
X64135000Y-111125000D03*
X66675000Y-111125000D03*
X69215000Y-111125000D03*
X71755000Y-111125000D03*
X74295000Y-111125000D03*
X76835000Y-111125000D03*
X79375000Y-111125000D03*
X81915000Y-111125000D03*
X84455000Y-111125000D03*
X86995000Y-111125000D03*
X89535000Y-111125000D03*
X92075000Y-111125000D03*
X94615000Y-111125000D03*
X97155000Y-111125000D03*
X99695000Y-111125000D03*
X102235000Y-111125000D03*
X104775000Y-111125000D03*
X107315000Y-111125000D03*
X109855000Y-111125000D03*
X112395000Y-111125000D03*
X114935000Y-111125000D03*
X117475000Y-111125000D03*
X120015000Y-111125000D03*
X122555000Y-111125000D03*
X125095000Y-111125000D03*
X127635000Y-111125000D03*
X130175000Y-111125000D03*
X132715000Y-111125000D03*
X135255000Y-111125000D03*
X137795000Y-111125000D03*
X46355000Y-88265000D03*
X48895000Y-88265000D03*
X51435000Y-88265000D03*
X53975000Y-88265000D03*
X56515000Y-88265000D03*
X59055000Y-88265000D03*
X61595000Y-88265000D03*
X64135000Y-88265000D03*
X66675000Y-88265000D03*
X69215000Y-88265000D03*
X71755000Y-88265000D03*
X74295000Y-88265000D03*
X76835000Y-88265000D03*
X79375000Y-88265000D03*
X81915000Y-88265000D03*
X84455000Y-88265000D03*
X86995000Y-88265000D03*
X89535000Y-88265000D03*
X92075000Y-88265000D03*
X94615000Y-88265000D03*
X97155000Y-88265000D03*
X99695000Y-88265000D03*
X102235000Y-88265000D03*
X104775000Y-88265000D03*
X107315000Y-88265000D03*
X109855000Y-88265000D03*
X112395000Y-88265000D03*
X114935000Y-88265000D03*
X117475000Y-88265000D03*
X120015000Y-88265000D03*
X122555000Y-88265000D03*
X125095000Y-88265000D03*
X127635000Y-88265000D03*
X130175000Y-88265000D03*
X132715000Y-88265000D03*
X135255000Y-88265000D03*
X137795000Y-88265000D03*
X48895000Y-57785000D03*
X51435000Y-57785000D03*
X53975000Y-57785000D03*
X56515000Y-57785000D03*
X59055000Y-57785000D03*
X61595000Y-57785000D03*
X64135000Y-57785000D03*
X66675000Y-57785000D03*
X69215000Y-57785000D03*
X71755000Y-57785000D03*
X74295000Y-57785000D03*
X76835000Y-57785000D03*
X79375000Y-57785000D03*
X81915000Y-57785000D03*
X84455000Y-57785000D03*
X86995000Y-57785000D03*
X89535000Y-57785000D03*
X92075000Y-57785000D03*
X94615000Y-57785000D03*
X97155000Y-57785000D03*
X99695000Y-57785000D03*
X102235000Y-57785000D03*
X104775000Y-57785000D03*
X107315000Y-57785000D03*
X109855000Y-57785000D03*
X112395000Y-57785000D03*
X114935000Y-57785000D03*
X117475000Y-57785000D03*
X120015000Y-57785000D03*
X122555000Y-57785000D03*
X125095000Y-57785000D03*
X127635000Y-57785000D03*
X130175000Y-57785000D03*
X132715000Y-57785000D03*
X135255000Y-57785000D03*
D12*
X53975000Y-133350000D03*
X53975000Y-135890000D03*
X56515000Y-133350000D03*
X56515000Y-135890000D03*
X59055000Y-133350000D03*
X59055000Y-135890000D03*
X61595000Y-133350000D03*
X61595000Y-135890000D03*
X64135000Y-133350000D03*
X64135000Y-135890000D03*
X66675000Y-133350000D03*
X66675000Y-135890000D03*
X69215000Y-133350000D03*
X69215000Y-135890000D03*
X71755000Y-133350000D03*
X71755000Y-135890000D03*
X74295000Y-133350000D03*
X74295000Y-135890000D03*
X76835000Y-133350000D03*
X76835000Y-135890000D03*
X79375000Y-133350000D03*
X79375000Y-135890000D03*
X81915000Y-133350000D03*
X81915000Y-135890000D03*
X84455000Y-133350000D03*
X84455000Y-135890000D03*
X86995000Y-133350000D03*
X86995000Y-135890000D03*
X89535000Y-133350000D03*
X89535000Y-135890000D03*
X92075000Y-133350000D03*
X92075000Y-135890000D03*
X94615000Y-133350000D03*
X94615000Y-135890000D03*
X97155000Y-133350000D03*
X97155000Y-135890000D03*
X99695000Y-133350000D03*
X99695000Y-135890000D03*
X102235000Y-133350000D03*
X102235000Y-135890000D03*
X104775000Y-133350000D03*
X104775000Y-135890000D03*
X107315000Y-133350000D03*
X107315000Y-135890000D03*
X109855000Y-133350000D03*
X109855000Y-135890000D03*
X112395000Y-133350000D03*
X112395000Y-135890000D03*
X114935000Y-133350000D03*
X114935000Y-135890000D03*
X117475000Y-133350000D03*
X117475000Y-135890000D03*
X120015000Y-133350000D03*
X120015000Y-135890000D03*
X122555000Y-133350000D03*
X122555000Y-135890000D03*
X125095000Y-133350000D03*
X125095000Y-135890000D03*
X127635000Y-133350000D03*
X127635000Y-135890000D03*
D10*
X46355000Y-118745000D03*
X48895000Y-118745000D03*
X51435000Y-118745000D03*
X53975000Y-118745000D03*
X56515000Y-118745000D03*
X59055000Y-118745000D03*
X61595000Y-118745000D03*
X64135000Y-118745000D03*
X66675000Y-118745000D03*
X69215000Y-118745000D03*
X71755000Y-118745000D03*
X74295000Y-118745000D03*
X76835000Y-118745000D03*
X79375000Y-118745000D03*
X81915000Y-118745000D03*
X84455000Y-118745000D03*
X86995000Y-118745000D03*
X89535000Y-118745000D03*
X92075000Y-118745000D03*
X94615000Y-118745000D03*
X97155000Y-118745000D03*
X99695000Y-118745000D03*
X102235000Y-118745000D03*
X104775000Y-118745000D03*
X107315000Y-118745000D03*
X109855000Y-118745000D03*
X112395000Y-118745000D03*
X114935000Y-118745000D03*
X117475000Y-118745000D03*
X120015000Y-118745000D03*
X122555000Y-118745000D03*
X125095000Y-118745000D03*
X127635000Y-118745000D03*
X130175000Y-118745000D03*
X132715000Y-118745000D03*
X135255000Y-118745000D03*
X137795000Y-118745000D03*
X46355000Y-60325000D03*
X48895000Y-60325000D03*
X51435000Y-60325000D03*
X53975000Y-60325000D03*
X56515000Y-60325000D03*
X59055000Y-60325000D03*
X61595000Y-60325000D03*
X64135000Y-60325000D03*
X66675000Y-60325000D03*
X69215000Y-60325000D03*
X71755000Y-60325000D03*
X74295000Y-60325000D03*
X76835000Y-60325000D03*
X79375000Y-60325000D03*
X81915000Y-60325000D03*
X84455000Y-60325000D03*
X86995000Y-60325000D03*
X89535000Y-60325000D03*
X92075000Y-60325000D03*
X94615000Y-60325000D03*
X97155000Y-60325000D03*
X99695000Y-60325000D03*
X102235000Y-60325000D03*
X104775000Y-60325000D03*
X107315000Y-60325000D03*
X109855000Y-60325000D03*
X112395000Y-60325000D03*
X114935000Y-60325000D03*
X117475000Y-60325000D03*
X120015000Y-60325000D03*
X122555000Y-60325000D03*
X125095000Y-60325000D03*
X127635000Y-60325000D03*
X130175000Y-60325000D03*
X132715000Y-60325000D03*
X135255000Y-60325000D03*
X137795000Y-60325000D03*
X51435000Y-52705000D03*
X53975000Y-52705000D03*
X56515000Y-52705000D03*
X59055000Y-52705000D03*
X61595000Y-52705000D03*
X64135000Y-52705000D03*
X66675000Y-52705000D03*
X69215000Y-52705000D03*
X71755000Y-52705000D03*
X74295000Y-52705000D03*
X76835000Y-52705000D03*
X79375000Y-52705000D03*
X81915000Y-52705000D03*
X84455000Y-52705000D03*
X86995000Y-52705000D03*
X89535000Y-52705000D03*
X92075000Y-52705000D03*
X94615000Y-52705000D03*
X97155000Y-52705000D03*
X99695000Y-52705000D03*
X102235000Y-52705000D03*
X104775000Y-52705000D03*
X107315000Y-52705000D03*
X109855000Y-52705000D03*
X112395000Y-52705000D03*
X114935000Y-52705000D03*
X117475000Y-52705000D03*
X120015000Y-52705000D03*
X122555000Y-52705000D03*
X125095000Y-52705000D03*
X127635000Y-52705000D03*
X130175000Y-52705000D03*
X132715000Y-52705000D03*
D13*
X53975000Y-145034000D03*
X56515000Y-145034000D03*
X59055000Y-145034000D03*
X61595000Y-145034000D03*
X64135000Y-145034000D03*
X66675000Y-145034000D03*
X69215000Y-145034000D03*
X71755000Y-145034000D03*
X74295000Y-145034000D03*
X76835000Y-145034000D03*
X79375000Y-145034000D03*
X81915000Y-145034000D03*
X84455000Y-145034000D03*
X86995000Y-145034000D03*
X89535000Y-145034000D03*
X92075000Y-145034000D03*
X94615000Y-145034000D03*
X97155000Y-145034000D03*
X99695000Y-145034000D03*
X102235000Y-145034000D03*
X104775000Y-145034000D03*
X107315000Y-145034000D03*
X109855000Y-145034000D03*
X112395000Y-145034000D03*
X114935000Y-145034000D03*
X117475000Y-145034000D03*
X120015000Y-145034000D03*
X122555000Y-145034000D03*
X125095000Y-145034000D03*
X127635000Y-145034000D03*
D10*
X46355000Y-73025000D03*
X48895000Y-73025000D03*
X51435000Y-73025000D03*
X53975000Y-73025000D03*
X56515000Y-73025000D03*
X59055000Y-73025000D03*
X61595000Y-73025000D03*
X64135000Y-73025000D03*
X66675000Y-73025000D03*
X69215000Y-73025000D03*
X71755000Y-73025000D03*
X74295000Y-73025000D03*
X76835000Y-73025000D03*
X79375000Y-73025000D03*
X81915000Y-73025000D03*
X84455000Y-73025000D03*
X86995000Y-73025000D03*
X89535000Y-73025000D03*
X92075000Y-73025000D03*
X94615000Y-73025000D03*
X97155000Y-73025000D03*
X99695000Y-73025000D03*
X102235000Y-73025000D03*
X104775000Y-73025000D03*
X107315000Y-73025000D03*
X109855000Y-73025000D03*
X112395000Y-73025000D03*
X114935000Y-73025000D03*
X117475000Y-73025000D03*
X120015000Y-73025000D03*
X122555000Y-73025000D03*
X125095000Y-73025000D03*
X127635000Y-73025000D03*
X130175000Y-73025000D03*
X132715000Y-73025000D03*
X135255000Y-73025000D03*
X137795000Y-73025000D03*
X46355000Y-65405000D03*
X48895000Y-65405000D03*
X51435000Y-65405000D03*
X53975000Y-65405000D03*
X56515000Y-65405000D03*
X59055000Y-65405000D03*
X61595000Y-65405000D03*
X64135000Y-65405000D03*
X66675000Y-65405000D03*
X69215000Y-65405000D03*
X71755000Y-65405000D03*
X74295000Y-65405000D03*
X76835000Y-65405000D03*
X79375000Y-65405000D03*
X81915000Y-65405000D03*
X84455000Y-65405000D03*
X86995000Y-65405000D03*
X89535000Y-65405000D03*
X92075000Y-65405000D03*
X94615000Y-65405000D03*
X97155000Y-65405000D03*
X99695000Y-65405000D03*
X102235000Y-65405000D03*
X104775000Y-65405000D03*
X107315000Y-65405000D03*
X109855000Y-65405000D03*
X112395000Y-65405000D03*
X114935000Y-65405000D03*
X117475000Y-65405000D03*
X120015000Y-65405000D03*
X122555000Y-65405000D03*
X125095000Y-65405000D03*
X127635000Y-65405000D03*
X130175000Y-65405000D03*
X132715000Y-65405000D03*
X135255000Y-65405000D03*
X137795000Y-65405000D03*
X46355000Y-90805000D03*
X48895000Y-90805000D03*
X51435000Y-90805000D03*
X53975000Y-90805000D03*
X56515000Y-90805000D03*
X59055000Y-90805000D03*
X61595000Y-90805000D03*
X64135000Y-90805000D03*
X66675000Y-90805000D03*
X69215000Y-90805000D03*
X71755000Y-90805000D03*
X74295000Y-90805000D03*
X76835000Y-90805000D03*
X79375000Y-90805000D03*
X81915000Y-90805000D03*
X84455000Y-90805000D03*
X86995000Y-90805000D03*
X89535000Y-90805000D03*
X92075000Y-90805000D03*
X94615000Y-90805000D03*
X97155000Y-90805000D03*
X99695000Y-90805000D03*
X102235000Y-90805000D03*
X104775000Y-90805000D03*
X107315000Y-90805000D03*
X109855000Y-90805000D03*
X112395000Y-90805000D03*
X114935000Y-90805000D03*
X117475000Y-90805000D03*
X120015000Y-90805000D03*
X122555000Y-90805000D03*
X125095000Y-90805000D03*
X127635000Y-90805000D03*
X130175000Y-90805000D03*
X132715000Y-90805000D03*
X135255000Y-90805000D03*
X137795000Y-90805000D03*
D11*
X137795000Y-54610000D03*
D10*
X46355000Y-126365000D03*
X48895000Y-126365000D03*
X51435000Y-126365000D03*
X53975000Y-126365000D03*
X56515000Y-126365000D03*
X59055000Y-126365000D03*
X61595000Y-126365000D03*
X64135000Y-126365000D03*
X66675000Y-126365000D03*
X69215000Y-126365000D03*
X71755000Y-126365000D03*
X74295000Y-126365000D03*
X76835000Y-126365000D03*
X79375000Y-126365000D03*
X81915000Y-126365000D03*
X84455000Y-126365000D03*
X86995000Y-126365000D03*
X89535000Y-126365000D03*
X92075000Y-126365000D03*
X94615000Y-126365000D03*
X97155000Y-126365000D03*
X99695000Y-126365000D03*
X102235000Y-126365000D03*
X104775000Y-126365000D03*
X107315000Y-126365000D03*
X109855000Y-126365000D03*
X112395000Y-126365000D03*
X114935000Y-126365000D03*
X117475000Y-126365000D03*
X120015000Y-126365000D03*
X122555000Y-126365000D03*
X125095000Y-126365000D03*
X127635000Y-126365000D03*
X130175000Y-126365000D03*
X132715000Y-126365000D03*
X135255000Y-126365000D03*
X137795000Y-126365000D03*
D11*
X137795000Y-136525000D03*
D10*
X46355000Y-70485000D03*
X48895000Y-70485000D03*
X51435000Y-70485000D03*
X53975000Y-70485000D03*
X56515000Y-70485000D03*
X59055000Y-70485000D03*
X61595000Y-70485000D03*
X64135000Y-70485000D03*
X66675000Y-70485000D03*
X69215000Y-70485000D03*
X71755000Y-70485000D03*
X74295000Y-70485000D03*
X76835000Y-70485000D03*
X79375000Y-70485000D03*
X81915000Y-70485000D03*
X84455000Y-70485000D03*
X86995000Y-70485000D03*
X89535000Y-70485000D03*
X92075000Y-70485000D03*
X94615000Y-70485000D03*
X97155000Y-70485000D03*
X99695000Y-70485000D03*
X102235000Y-70485000D03*
X104775000Y-70485000D03*
X107315000Y-70485000D03*
X109855000Y-70485000D03*
X112395000Y-70485000D03*
X114935000Y-70485000D03*
X117475000Y-70485000D03*
X120015000Y-70485000D03*
X122555000Y-70485000D03*
X125095000Y-70485000D03*
X127635000Y-70485000D03*
X130175000Y-70485000D03*
X132715000Y-70485000D03*
X135255000Y-70485000D03*
X137795000Y-70485000D03*
X46355000Y-83185000D03*
X48895000Y-83185000D03*
X51435000Y-83185000D03*
X53975000Y-83185000D03*
X56515000Y-83185000D03*
X59055000Y-83185000D03*
X61595000Y-83185000D03*
X64135000Y-83185000D03*
X66675000Y-83185000D03*
X69215000Y-83185000D03*
X71755000Y-83185000D03*
X74295000Y-83185000D03*
X76835000Y-83185000D03*
X79375000Y-83185000D03*
X81915000Y-83185000D03*
X84455000Y-83185000D03*
X86995000Y-83185000D03*
X89535000Y-83185000D03*
X92075000Y-83185000D03*
X94615000Y-83185000D03*
X97155000Y-83185000D03*
X99695000Y-83185000D03*
X102235000Y-83185000D03*
X104775000Y-83185000D03*
X107315000Y-83185000D03*
X109855000Y-83185000D03*
X112395000Y-83185000D03*
X114935000Y-83185000D03*
X117475000Y-83185000D03*
X120015000Y-83185000D03*
X122555000Y-83185000D03*
X125095000Y-83185000D03*
X127635000Y-83185000D03*
X130175000Y-83185000D03*
X132715000Y-83185000D03*
X135255000Y-83185000D03*
X137795000Y-83185000D03*
X46355000Y-108585000D03*
X48895000Y-108585000D03*
X51435000Y-108585000D03*
X53975000Y-108585000D03*
X56515000Y-108585000D03*
X59055000Y-108585000D03*
X61595000Y-108585000D03*
X64135000Y-108585000D03*
X66675000Y-108585000D03*
X69215000Y-108585000D03*
X71755000Y-108585000D03*
X74295000Y-108585000D03*
X76835000Y-108585000D03*
X79375000Y-108585000D03*
X81915000Y-108585000D03*
X84455000Y-108585000D03*
X86995000Y-108585000D03*
X89535000Y-108585000D03*
X92075000Y-108585000D03*
X94615000Y-108585000D03*
X97155000Y-108585000D03*
X99695000Y-108585000D03*
X102235000Y-108585000D03*
X104775000Y-108585000D03*
X107315000Y-108585000D03*
X109855000Y-108585000D03*
X112395000Y-108585000D03*
X114935000Y-108585000D03*
X117475000Y-108585000D03*
X120015000Y-108585000D03*
X122555000Y-108585000D03*
X125095000Y-108585000D03*
X127635000Y-108585000D03*
X130175000Y-108585000D03*
X132715000Y-108585000D03*
X135255000Y-108585000D03*
X137795000Y-108585000D03*
X46355000Y-98425000D03*
X48895000Y-98425000D03*
X51435000Y-98425000D03*
X53975000Y-98425000D03*
X56515000Y-98425000D03*
X59055000Y-98425000D03*
X61595000Y-98425000D03*
X64135000Y-98425000D03*
X66675000Y-98425000D03*
X69215000Y-98425000D03*
X71755000Y-98425000D03*
X74295000Y-98425000D03*
X76835000Y-98425000D03*
X79375000Y-98425000D03*
X81915000Y-98425000D03*
X84455000Y-98425000D03*
X86995000Y-98425000D03*
X89535000Y-98425000D03*
X92075000Y-98425000D03*
X94615000Y-98425000D03*
X97155000Y-98425000D03*
X99695000Y-98425000D03*
X102235000Y-98425000D03*
X104775000Y-98425000D03*
X107315000Y-98425000D03*
X109855000Y-98425000D03*
X112395000Y-98425000D03*
X114935000Y-98425000D03*
X117475000Y-98425000D03*
X120015000Y-98425000D03*
X122555000Y-98425000D03*
X125095000Y-98425000D03*
X127635000Y-98425000D03*
X130175000Y-98425000D03*
X132715000Y-98425000D03*
X135255000Y-98425000D03*
X137795000Y-98425000D03*
X46355000Y-75565000D03*
X48895000Y-75565000D03*
X51435000Y-75565000D03*
X53975000Y-75565000D03*
X56515000Y-75565000D03*
X59055000Y-75565000D03*
X61595000Y-75565000D03*
X64135000Y-75565000D03*
X66675000Y-75565000D03*
X69215000Y-75565000D03*
X71755000Y-75565000D03*
X74295000Y-75565000D03*
X76835000Y-75565000D03*
X79375000Y-75565000D03*
X81915000Y-75565000D03*
X84455000Y-75565000D03*
X86995000Y-75565000D03*
X89535000Y-75565000D03*
X92075000Y-75565000D03*
X94615000Y-75565000D03*
X97155000Y-75565000D03*
X99695000Y-75565000D03*
X102235000Y-75565000D03*
X104775000Y-75565000D03*
X107315000Y-75565000D03*
X109855000Y-75565000D03*
X112395000Y-75565000D03*
X114935000Y-75565000D03*
X117475000Y-75565000D03*
X120015000Y-75565000D03*
X122555000Y-75565000D03*
X125095000Y-75565000D03*
X127635000Y-75565000D03*
X130175000Y-75565000D03*
X132715000Y-75565000D03*
X135255000Y-75565000D03*
X137795000Y-75565000D03*
X46355000Y-85725000D03*
X48895000Y-85725000D03*
X51435000Y-85725000D03*
X53975000Y-85725000D03*
X56515000Y-85725000D03*
X59055000Y-85725000D03*
X61595000Y-85725000D03*
X64135000Y-85725000D03*
X66675000Y-85725000D03*
X69215000Y-85725000D03*
X71755000Y-85725000D03*
X74295000Y-85725000D03*
X76835000Y-85725000D03*
X79375000Y-85725000D03*
X81915000Y-85725000D03*
X84455000Y-85725000D03*
X86995000Y-85725000D03*
X89535000Y-85725000D03*
X92075000Y-85725000D03*
X94615000Y-85725000D03*
X97155000Y-85725000D03*
X99695000Y-85725000D03*
X102235000Y-85725000D03*
X104775000Y-85725000D03*
X107315000Y-85725000D03*
X109855000Y-85725000D03*
X112395000Y-85725000D03*
X114935000Y-85725000D03*
X117475000Y-85725000D03*
X120015000Y-85725000D03*
X122555000Y-85725000D03*
X125095000Y-85725000D03*
X127635000Y-85725000D03*
X130175000Y-85725000D03*
X132715000Y-85725000D03*
X135255000Y-85725000D03*
X137795000Y-85725000D03*
X46355000Y-95885000D03*
X48895000Y-95885000D03*
X51435000Y-95885000D03*
X53975000Y-95885000D03*
X56515000Y-95885000D03*
X59055000Y-95885000D03*
X61595000Y-95885000D03*
X64135000Y-95885000D03*
X66675000Y-95885000D03*
X69215000Y-95885000D03*
X71755000Y-95885000D03*
X74295000Y-95885000D03*
X76835000Y-95885000D03*
X79375000Y-95885000D03*
X81915000Y-95885000D03*
X84455000Y-95885000D03*
X86995000Y-95885000D03*
X89535000Y-95885000D03*
X92075000Y-95885000D03*
X94615000Y-95885000D03*
X97155000Y-95885000D03*
X99695000Y-95885000D03*
X102235000Y-95885000D03*
X104775000Y-95885000D03*
X107315000Y-95885000D03*
X109855000Y-95885000D03*
X112395000Y-95885000D03*
X114935000Y-95885000D03*
X117475000Y-95885000D03*
X120015000Y-95885000D03*
X122555000Y-95885000D03*
X125095000Y-95885000D03*
X127635000Y-95885000D03*
X130175000Y-95885000D03*
X132715000Y-95885000D03*
X135255000Y-95885000D03*
X137795000Y-95885000D03*
D11*
X46355000Y-136525000D03*
D10*
X46355000Y-62865000D03*
X48895000Y-62865000D03*
X51435000Y-62865000D03*
X53975000Y-62865000D03*
X56515000Y-62865000D03*
X59055000Y-62865000D03*
X61595000Y-62865000D03*
X64135000Y-62865000D03*
X66675000Y-62865000D03*
X69215000Y-62865000D03*
X71755000Y-62865000D03*
X74295000Y-62865000D03*
X76835000Y-62865000D03*
X79375000Y-62865000D03*
X81915000Y-62865000D03*
X84455000Y-62865000D03*
X86995000Y-62865000D03*
X89535000Y-62865000D03*
X92075000Y-62865000D03*
X94615000Y-62865000D03*
X97155000Y-62865000D03*
X99695000Y-62865000D03*
X102235000Y-62865000D03*
X104775000Y-62865000D03*
X107315000Y-62865000D03*
X109855000Y-62865000D03*
X112395000Y-62865000D03*
X114935000Y-62865000D03*
X117475000Y-62865000D03*
X120015000Y-62865000D03*
X122555000Y-62865000D03*
X125095000Y-62865000D03*
X127635000Y-62865000D03*
X130175000Y-62865000D03*
X132715000Y-62865000D03*
X135255000Y-62865000D03*
X137795000Y-62865000D03*
X46355000Y-80645000D03*
X48895000Y-80645000D03*
X51435000Y-80645000D03*
X53975000Y-80645000D03*
X56515000Y-80645000D03*
X59055000Y-80645000D03*
X61595000Y-80645000D03*
X64135000Y-80645000D03*
X66675000Y-80645000D03*
X69215000Y-80645000D03*
X71755000Y-80645000D03*
X74295000Y-80645000D03*
X76835000Y-80645000D03*
X79375000Y-80645000D03*
X81915000Y-80645000D03*
X84455000Y-80645000D03*
X86995000Y-80645000D03*
X89535000Y-80645000D03*
X92075000Y-80645000D03*
X94615000Y-80645000D03*
X97155000Y-80645000D03*
X99695000Y-80645000D03*
X102235000Y-80645000D03*
X104775000Y-80645000D03*
X107315000Y-80645000D03*
X109855000Y-80645000D03*
X112395000Y-80645000D03*
X114935000Y-80645000D03*
X117475000Y-80645000D03*
X120015000Y-80645000D03*
X122555000Y-80645000D03*
X125095000Y-80645000D03*
X127635000Y-80645000D03*
X130175000Y-80645000D03*
X132715000Y-80645000D03*
X135255000Y-80645000D03*
X137795000Y-80645000D03*
D14*
X127635000Y-135636000D02*
X127635000Y-144780000D01*
X53975000Y-135890000D02*
X53975000Y-145034000D01*
X56515000Y-135890000D02*
X56515000Y-145034000D01*
X59055000Y-135890000D02*
X59055000Y-145034000D01*
X61595000Y-135890000D02*
X61595000Y-145034000D01*
X64135000Y-135890000D02*
X64135000Y-145034000D01*
X66675000Y-135890000D02*
X66675000Y-145034000D01*
X69215000Y-135890000D02*
X69215000Y-145034000D01*
X71755000Y-135636000D02*
X71755000Y-144780000D01*
X74295000Y-135636000D02*
X74295000Y-144780000D01*
X76835000Y-135636000D02*
X76835000Y-144780000D01*
X79375000Y-135636000D02*
X79375000Y-144780000D01*
X81915000Y-135636000D02*
X81915000Y-144780000D01*
X84455000Y-135636000D02*
X84455000Y-144780000D01*
X86995000Y-135636000D02*
X86995000Y-144780000D01*
X89535000Y-135636000D02*
X89535000Y-144780000D01*
X92075000Y-135636000D02*
X92075000Y-144780000D01*
X94615000Y-135636000D02*
X94615000Y-144780000D01*
X97155000Y-135636000D02*
X97155000Y-144780000D01*
X99695000Y-135636000D02*
X99695000Y-144780000D01*
X102235000Y-135636000D02*
X102235000Y-144780000D01*
X104775000Y-135636000D02*
X104775000Y-144780000D01*
X107315000Y-135636000D02*
X107315000Y-144780000D01*
X109855000Y-135636000D02*
X109855000Y-144780000D01*
X112395000Y-135636000D02*
X112395000Y-144780000D01*
X114935000Y-135636000D02*
X114935000Y-144780000D01*
X117475000Y-135636000D02*
X117475000Y-144780000D01*
X120015000Y-135636000D02*
X120015000Y-144780000D01*
X122555000Y-135636000D02*
X122555000Y-144780000D01*
X125095000Y-135636000D02*
X125095000Y-144780000D01*
M02*
